<svg xmlns="http://www.w3.org/2000/svg" width="1440" height="900" viewBox="0 0 1440 900" fill="none">
  <rect width="1440" height="900" fill="#EEF1F4"/>
  <rect x="120" y="140" width="520" height="620" rx="8" fill="#fff" stroke="#0B1520" stroke-opacity=".12"/>
  <rect x="160" y="190" width="440" height="18" fill="#0A3A5C" opacity=".15"/>
  <rect x="160" y="230" width="380" height="12" fill="#0B1520" opacity=".12"/>
  <rect x="160" y="260" width="410" height="12" fill="#0B1520" opacity=".1"/>
  <rect x="160" y="290" width="300" height="12" fill="#0B1520" opacity=".1"/>
  <rect x="160" y="360" width="440" height="280" fill="#0A3A5C" opacity=".06"/>
  <text x="180" y="420" fill="#0A3A5C" font-family="Georgia, serif" font-style="italic" font-size="34">Bulletin PDF</text>
  <text x="180" y="470" fill="#3A4654" font-family="system-ui, sans-serif" font-size="18">mark · applicant · class · opposition</text>
  <path d="M700 450 H820" stroke="#C45C26" stroke-width="3"/>
  <polygon points="820,440 850,450 820,460" fill="#C45C26"/>
  <rect x="900" y="200" width="420" height="500" rx="8" fill="#0A3A5C"/>
  <text x="940" y="280" fill="#F0F3F6" font-family="Georgia, serif" font-style="italic" font-size="40">Structured</text>
  <text x="940" y="340" fill="#F0F3F6" font-family="Georgia, serif" font-style="italic" font-size="40">matter data</text>
  <rect x="940" y="400" width="280" height="14" fill="#7EB3D6" opacity=".5"/>
  <rect x="940" y="440" width="240" height="14" fill="#7EB3D6" opacity=".35"/>
  <rect x="940" y="480" width="300" height="14" fill="#7EB3D6" opacity=".28"/>
  <rect x="940" y="520" width="200" height="14" fill="#C45C26" opacity=".7"/>
  <text x="120" y="820" fill="#0B1520" font-family="Georgia, serif" font-style="italic" font-size="48">AI OCR Engine</text>
</svg>
